<?xml version="1.0" encoding="UTF-8"?>
<svg width="120" height="120" viewBox="0 0 120 120" fill="none" xmlns="http://www.w3.org/2000/svg">
  <!-- Background circle -->
  <circle cx="60" cy="60" r="58" fill="#0D1B12" stroke="#4CAF50" stroke-width="2" stroke-opacity="0.4" />
  
  <!-- Pot -->
  <path d="M40 88C40 88 45 98 60 98C75 98 80 88 80 88V78H40V88Z" fill="#5D4037" />
  <path d="M38 78C38 78 42 74 60 74C78 74 82 78 82 78H38Z" fill="#795548" />
  
  <!-- Main stem -->
  <path d="M60 30V74" stroke="#2E7D32" stroke-width="3" stroke-linecap="round" />

  <!-- First branch/leaf on the left -->
  <path d="M60 60C50 50 40 55 38 62" stroke="#43A047" stroke-width="2" stroke-linecap="round" />
  <path d="M38 62C38 62 42 58 45 62C48 66 42 72 38 72" stroke="#43A047" stroke-width="2" stroke-linecap="round" stroke-linejoin="round" fill="none" />

  <!-- Second branch/leaf on the right -->
  <path d="M60 50C70 40 80 45 82 52" stroke="#43A047" stroke-width="2" stroke-linecap="round" />
  <path d="M82 52C82 52 78 48 75 52C72 56 78 62 82 62" stroke="#43A047" stroke-width="2" stroke-linecap="round" stroke-linejoin="round" fill="none" />
  
  <!-- Flower/plant top -->
  <circle cx="60" cy="26" r="6" fill="#66BB6A" />
  <circle cx="54" cy="22" r="5" fill="#81C784" />
  <circle cx="66" cy="22" r="5" fill="#81C784" />
  <circle cx="60" cy="16" r="5" fill="#A5D6A7" />
  
  <!-- Growing effect circles (visual enhancement) -->
  <circle cx="60" cy="60" r="2" fill="#E8F5E9" fill-opacity="0.6" />
  <circle cx="50" cy="47" r="1.5" fill="#E8F5E9" fill-opacity="0.6" />
  <circle cx="70" cy="47" r="1.5" fill="#E8F5E9" fill-opacity="0.6" />
  <circle cx="60" cy="35" r="1" fill="#E8F5E9" fill-opacity="0.6" />
  
  <!-- Zen circle -->
  <circle cx="60" cy="60" r="35" stroke="#66BB6A" stroke-width="1.5" stroke-opacity="0.3" stroke-dasharray="3 3" fill="none" />
</svg>